<?xml version="1.0"?>
<svg xmlns="http://www.w3.org/2000/svg" xmlns:xlink="http://www.w3.org/1999/xlink" version="1.1" id="Layer_1" x="0px" y="0px" viewBox="0 0 511.999 511.999" style="enable-background:new 0 0 511.999 511.999;" xml:space="preserve" width="512px" height="512px"><g><g>
	<g>
		<path d="M446.067,136.265c-0.004-24.077-18.331-43.578-41.965-44.418c-6.442-0.211-11.638,0.937-18.2,3.341v-2.491    c0-1.753-0.408-3.424-1.033-4.953c-2.649-21.393-20.247-37.976-41.987-38.749c-6.448-0.21-12.095,0.937-18.656,3.342v-8.612    c0-1.753-0.177-3.424-0.802-4.952c-2.649-21.393-19.958-37.976-41.697-38.749c-11.98-0.398-23.386,3.917-32.002,12.234    c-8.618,8.317-13.419,19.492-13.419,31.467v8.858c-5.249-2.583-11.973-3.808-18.642-3.588    c-23.634,0.841-41.722,20.36-41.722,44.436v149.577l-15.819-26.754c-7.241-12.54-19.103-21.492-33.102-25.209    c-13.969-3.708-28.644-1.764-41.178,5.474c-9.087,5.246-15.687,13.7-18.508,23.808c-2.858,10.24-1.548,20.908,3.714,30.022    l67.828,117.97c6.216,10.812,9.509,23.121,9.509,35.596c0,0.008,0,0.016,0,0.024c0,0.52-0.012,1.055-0.004,1.588    c0.406,28.611,11.932,55.433,32.476,75.527c20.473,20.024,47.52,30.916,76.165,30.943l80.476-0.073c0.038,0,0.072,0,0.11,0    c28.366,0,55.227-10.695,75.64-30.395c20.474-19.76,32.026-46.196,32.887-74.585C446.174,405.594,446.067,136.265,446.067,136.265    z M419.898,406.085c-1.357,44.736-37.384,79.595-82.291,79.595c-0.028,0-0.058,0-0.085,0l-80.48,0.073    c-44.826-0.043-81.79-36.192-82.419-80.689c-0.007-0.432,0.007-0.777,0.007-1.186c0-0.008,0-0.016,0-0.024    c0-17.037-4.521-33.849-13.012-48.617L93.773,237.247c-1.718-2.974-2.146-6.476-1.199-9.863c0.963-3.454,3.203-6.344,6.309-8.136    c6.483-3.744,14.024-4.748,21.239-2.836c7.202,1.912,13.22,6.517,16.95,12.98l39.979,69.042c2.976,5.138,9.355,7.64,15.09,6.097    c5.732-1.539,10.045-6.737,10.045-12.673V93.432c0-9.709,7.224-17.877,16.507-18.206c4.771-0.176,9.181,1.564,12.625,4.889    c3.447,3.327,5.38,7.795,5.38,12.585c0,1.38,0.664,154.261,0.664,154.261c0,7.246,5.867,13.123,13.115,13.123    c7.248,0,13.119-5.876,13.119-13.123c0,0-0.247-205.236-0.466-206.187c0.617-3.651,2.295-7,5.021-9.629    c3.446-3.323,8.112-5.048,12.893-4.89c9.282,0.329,16.937,8.497,16.937,18.206v213.516c0,7.246,5.876,13.123,13.123,13.123    s13.123-5.876,13.123-13.123V88.154c1.312-3.029,2.581-5.798,4.905-8.04c3.446-3.324,8.458-5.065,13.239-4.89    c9.283,0.329,17.285,8.497,17.285,18.206v180.463c0,7.246,5.876,13.123,13.123,13.123s13.123-5.876,13.123-13.123v-142.89    c1.312-3.029,2.35-5.796,4.674-8.039c3.445-3.323,7.78-5.05,12.564-4.888c9.283,0.329,16.643,8.461,16.643,18.17    C419.783,136.246,419.928,405.014,419.898,406.085z" data-original="#000000" class="active-path" data-old_color="#ffffff" fill="#ffffff"/>
	</g>
</g><g>
	<g>
		<path d="M267.666,345.807c-16.273-17.246-33.873-25.182-34.614-25.512c-6.63-2.946-14.379,0.039-17.321,6.661    c-2.943,6.623,0.038,14.378,6.661,17.321c0.541,0.241,53.973,24.695,46.554,82.573c-0.921,7.189,4.159,13.763,11.347,14.684    c0.567,0.073,1.129,0.108,1.685,0.108c6.504,0,12.15-4.833,12.999-11.455C299.071,398.257,289.628,369.079,267.666,345.807z" data-original="#000000" class="active-path" data-old_color="#ffffff" fill="#ffffff"/>
	</g>
</g></g> </svg>
