<?xml version="1.0"?>
<svg xmlns="http://www.w3.org/2000/svg" xmlns:xlink="http://www.w3.org/1999/xlink" version="1.1" id="Capa_1" x="0px" y="0px" width="512px" height="512px" viewBox="0 0 44.021 44.021" style="enable-background:new 0 0 44.021 44.021;" xml:space="preserve" class=""><g><g>
	<path d="M42.89,6.824c-0.713-0.542-1.638-0.719-2.5-0.48l-14.557,4.03c-0.45,0.125-0.915,0.188-1.384,0.187l-4.893-0.011   c-0.459-0.001-0.916-0.063-1.358-0.186L3.63,6.33c-0.863-0.24-1.786-0.055-2.5,0.487C0.417,7.359,0,8.21,0,9.106v21.307   c0,1.288,0.857,2.397,2.098,2.743l16.097,4.452c0.445,0.124,0.906,0.187,1.369,0.187h4.894c0.463,0,0.923-0.063,1.368-0.187   l16.097-4.452c1.241-0.346,2.099-1.455,2.099-2.743V9.106C44.02,8.21,43.604,7.366,42.89,6.824z M24.434,33.628   c0,0.426-0.345,0.771-0.771,0.771h-3.307c-0.426,0-0.771-0.345-0.771-0.771v-5.827c0-0.426,0.345-0.771,0.771-0.771h3.307   c0.426,0,0.771,0.345,0.771,0.771V33.628z M24.434,23.836c0,0.426-0.345,0.771-0.771,0.771h-3.307   c-0.426,0-0.771-0.345-0.771-0.771V20.53c0-0.426,0.345-0.771,0.771-0.771h3.307c0.426,0,0.771,0.345,0.771,0.771V23.836z    M24.434,16.467c0,0.426-0.345,0.771-0.771,0.771h-3.307c-0.426,0-0.771-0.345-0.771-0.771v-1.658c0-0.426,0.345-0.771,0.771-0.771   h3.307c0.426,0,0.771,0.345,0.771,0.771V16.467z" data-original="#000000" class="active-path" data-old_color="#000000" fill="#FFFFFF"/>
</g></g> </svg>
