<?xml version="1.0"?>
<svg xmlns="http://www.w3.org/2000/svg" height="512px" viewBox="0 0 445.376 445" width="512px" class=""><g><path d="m114 76.875h89.375l-44.6875-44.6875zm0 0" data-original="#000000" class="active-path" data-old_color="#000000" fill="#9EFFD3"/><path d="m126.6875 164.875c0 4.417969-3.582031 8-8 8s-8-3.582031-8-8 3.582031-8 8-8 8 3.582031 8 8zm0 0" data-original="#000000" class="active-path" data-old_color="#000000" fill="#9EFFD3"/><path d="m334.6875 164.875c0 4.417969-3.582031 8-8 8s-8-3.582031-8-8 3.582031-8 8-8 8 3.582031 8 8zm0 0" data-original="#000000" class="active-path" data-old_color="#000000" fill="#9EFFD3"/><path d="m331.375 76.875-76.6875-76.6875-52.6875 52.6875 24 24zm0 0" data-original="#000000" class="active-path" data-old_color="#000000" fill="#9EFFD3"/><path d="m0 444.875h445.375l-53.558594-352h-338.257812zm358.6875-336h16c4.417969 0 8 3.582031 8 8s-3.582031 8-8 8h-16c-4.417969 0-8-3.582031-8-8s3.582031-8 8-8zm-8 56c-.027344 11.128906-7.699219 20.78125-18.535156 23.3125-10.960938 51.707031-56.609375 88.695312-109.464844 88.695312s-98.503906-36.988281-109.464844-88.695312c-11.425781-2.625-19.296875-13.101562-18.640625-24.808594.65625-11.703125 9.652344-21.234375 21.296875-22.566406 11.648438-1.332031 22.5625 5.917969 25.847656 17.175781 3.28125 11.253907-2.019531 23.238281-12.558593 28.375 9.992187 43.601563 48.789062 74.515625 93.519531 74.515625 44.734375 0 83.527344-30.914062 93.519531-74.515625-10.683593-5.1875-15.96875-17.40625-12.425781-28.746093 3.539062-11.335938 14.839844-18.378907 26.578125-16.5625 11.734375 1.816406 20.378906 11.945312 20.328125 23.820312zm-280-56h256c4.417969 0 8 3.582031 8 8s-3.582031 8-8 8h-256c-4.417969 0-8-3.582031-8-8s3.582031-8 8-8zm0 0" data-original="#000000" class="active-path" data-old_color="#000000" fill="#9EFFD3"/></g> </svg>
